<?xml version="1.0" encoding="utf-8"?>
<!-- Generator: Adobe Illustrator 25.0.0, SVG Export Plug-In . SVG Version: 6.00 Build 0)  -->
<svg version="1.1" id="Camada_1" xmlns="http://www.w3.org/2000/svg" xmlns:xlink="http://www.w3.org/1999/xlink" x="0px" y="0px"
	 viewBox="0 0 162.9 256" style="enable-background:new 0 0 162.9 256;" xml:space="preserve">
<style type="text/css">
	.st0{fill:#FF4500;}
</style>
<g id="Camada_1_1_">
	<path class="st0" d="M139.6,209.5H23.3V46.5h116.4V209.5z M139.6,0H23.3C10.5,0,0,10.5,0,23.3v209.5C0,245.5,10.5,256,23.3,256
		h116.4c12.8,0,23.3-10.5,23.3-23.3V23.3C162.9,10.5,152.4,0,139.6,0z"/>
</g>
<g id="Camada_2_1_">
	<g>
		<path class="st0" d="M27.7,183.2V72.8h57.3c11.2,0,18.2,1.4,23.8,2.8c5.6,1.4,9.8,5.6,14,9.8c2.8,4.2,5.6,11.2,5.6,18.2
			c0,5.6-1.4,11.2-4.2,15.4c-2.8,4.2-5.6,8.4-11.2,11.2c-2.8,1.4-7,2.8-12.6,4.2c4.2,1.4,7,2.8,8.4,4.2c1.4,1.4,2.8,2.8,5.6,5.6
			c2.8,2.8,4.2,5.6,4.2,7l16.8,32.1H97.5l-18.2-33.5c-2.8-4.2-4.2-7-5.6-8.4c-2.8-1.4-5.6-2.8-8.4-2.8h-2.8v44.7H27.7z M61.2,117.5
			h14c1.4,0,4.2,0,8.4-1.4c2.8,0,4.2-1.4,5.6-2.8c1.4-1.4,2.8-4.2,2.8-7c0-4.2-1.4-5.6-2.8-8.4c-2.8-1.4-7-2.8-12.6-2.8H61.2V117.5z
			"/>
	</g>
</g>
</svg>
